<svg width="288" height="339" viewBox="0 0 288 339" fill="none" xmlns="http://www.w3.org/2000/svg">
<path fill-rule="evenodd" clip-rule="evenodd" d="M233.98 145.985C232.828 146.52 231.669 147.057 230.506 147.602C265.651 153.534 288.575 182.032 287.646 216.999C287.11 237.814 281.321 257.986 264.383 272.119C245.301 288.057 221.966 294.954 197.631 295.007L67.5028 295.258L10.6132 336.549C9.04086 337.693 5.4674 338.622 4.0738 338.675C2.69798 338.729 0.0536543 335.727 0.0536543 334.191L0 27.7122C0 14.4012 8.73715 0.0178848 23.6742 0.0178848L187.625 0C202.776 0 216.874 3.9666 230.489 9.2196C275.872 26.7296 294.168 80.0457 268.26 121.283C260.463 133.696 247.708 139.615 233.98 145.985ZM169.829 232.365C185.177 232.418 197.345 221.305 200.293 209.227C203.509 196.023 199.328 180.907 187.035 174.242C178.317 169.485 167.885 169.524 158.127 169.56L157.822 169.561L67.342 169.74L67.199 232.097L169.829 232.365ZM161.695 110.94C175.827 110.993 187.03 99.8796 189.745 87.8014C192.706 74.5974 188.856 59.4816 177.538 52.8171C169.511 48.0604 159.905 48.0988 150.921 48.1348L150.64 48.1359L67.3307 48.3145L67.199 110.672L161.695 110.94Z" fill="black"/>
</svg>
