<svg width="1076" height="339" viewBox="0 0 1076 339" fill="none" xmlns="http://www.w3.org/2000/svg">
<path fill-rule="evenodd" clip-rule="evenodd" d="M233.98 145.985C232.828 146.52 231.669 147.057 230.506 147.602C265.651 153.534 288.575 182.032 287.646 216.999C287.11 237.814 281.321 257.986 264.383 272.119C245.301 288.057 221.966 294.954 197.631 295.007L67.5028 295.258L10.6132 336.549C9.04086 337.693 5.4674 338.622 4.0738 338.675C2.69798 338.729 0.0536543 335.727 0.0536543 334.191L0 27.7122C0 14.4012 8.73715 0.0178848 23.6742 0.0178848L187.625 0C202.776 0 216.874 3.9666 230.489 9.2196C275.872 26.7296 294.168 80.0457 268.26 121.283C260.463 133.696 247.708 139.615 233.98 145.985ZM169.829 232.365C185.177 232.418 197.345 221.305 200.293 209.227C203.509 196.023 199.328 180.907 187.035 174.242C178.317 169.485 167.885 169.524 158.127 169.56L157.822 169.561L67.342 169.74L67.199 232.097L169.829 232.365ZM161.695 110.94C175.827 110.993 187.03 99.8796 189.745 87.8014C192.706 74.5974 188.856 59.4816 177.538 52.8171C169.511 48.0604 159.905 48.0988 150.921 48.1348L150.64 48.1359L67.3307 48.3145L67.199 110.672L161.695 110.94Z" fill="white"/>
<path d="M469.411 143.26C477.522 138.364 482.793 134.112 487.242 127.537C495.658 110.259 492.763 90.7123 478.755 77.1331C469.696 72.0588 458.797 67.2882 447.755 67.2524L369.836 66.9487L369.747 225.807L444.521 225.932C452.919 225.95 461.745 224.342 469.679 222.734C486.385 217.803 496.908 204.724 499.142 187.714C501.84 167.274 490.619 148.817 469.411 143.26ZM404.463 93.1422L440.841 93.4817C450.811 93.5889 457.35 102.255 457.332 112.385C457.314 124.106 449.667 132.486 438.607 132.522L404.266 132.593L404.463 93.1422ZM443.181 200.436L404.284 200.972L404.213 157.59L442.574 158.072C455.403 158.215 463.675 167.238 463.979 178.655C464.3 189.912 456.975 200.239 443.181 200.436Z" fill="white"/>
<path d="M911.162 116.941L910.055 129.895C900.782 118.71 889.025 115.012 874.927 114.637C854.184 114.065 835.655 125.536 828.24 145.261C822.201 161.306 821.915 178.691 827.15 194.754C833.261 213.479 848.287 224.253 867.834 225.843C883.379 227.111 897.154 222.93 908.018 211.084C908.947 228.862 904.73 242.978 886.202 245.836C869.567 248.391 854.97 244.05 840.122 237.171L832.618 258.933C854.719 271.029 878.161 274.728 902.354 269.064C923.759 264.043 940 246.229 940.143 223.109L940.822 117.263L911.162 116.941ZM903.89 189.626C895.886 203.098 874.57 204.938 864.85 193.217C854.094 180.228 854.202 159.162 865.297 146.619C875.839 134.684 896.851 138.4 904.087 152.069C909.983 163.182 910.895 177.851 903.89 189.626Z" fill="white"/>
<path d="M780.57 116.977L779.48 129.324C763.685 107.383 719.75 111.01 705.456 133.326C692.198 154.07 690.644 182.765 703.455 204.331C718.999 230.542 755.895 233.115 777.55 211.62C780.606 224.181 775.067 240.119 761.416 244.175C743.71 249.446 727.057 244.389 709.976 235.992L702.829 258.397C726.736 271.851 755.288 276.354 781.946 265.848C799.081 259.094 810.033 243.138 810.105 225.343L810.587 117.031L780.57 116.977ZM774.281 190.072C769.725 198.166 760.416 201.115 752.769 200.775C745.05 200.436 735.812 196.719 732.06 188.268C726.772 176.315 726.557 160.716 733.829 149.067C742.155 135.72 764.007 136.185 772.762 148.996C780.856 160.824 781.517 177.208 774.281 190.072Z" fill="white"/>
<path d="M626.446 114.279C609.187 114.672 592.927 117.889 580.528 130.61C556.692 155.053 559.819 202.276 588.175 219.589C612.707 234.58 646.047 232.883 668.756 213.782C681.853 202.758 685.176 185.999 685.552 170.794C686.427 136.238 659.966 113.529 626.446 114.279ZM649.067 188.464C645.404 197.845 636.649 202.687 628.43 203.616C619.192 204.67 609.33 201.758 604.005 192.896C596.519 180.46 596.394 163.54 603.541 151.05C608.651 142.117 617.799 138.168 626.947 139.133C635.684 140.044 645.082 144.278 648.834 153.516C653.212 164.326 653.533 177.047 649.067 188.464Z" fill="white"/>
<path d="M1075.73 117.227L1035.92 215.416L1014.07 268.908L979.348 268.694L997.944 223.953L950.997 116.98L987.402 116.714L1014.95 189.237L1041.2 116.841L1075.73 117.227Z" fill="white"/>
<path d="M550.495 224.813C539.527 226.177 528.288 226.013 516.655 225.4L516.946 66.7764L550.538 59.2173L550.495 224.813Z" fill="white"/>
</svg>
